<?xml version="1.0" encoding="utf-8"?>
<!-- Generator: Adobe Illustrator 26.1.0, SVG Export Plug-In . SVG Version: 6.00 Build 0)  -->
<svg version="1.1" xmlns="http://www.w3.org/2000/svg" xmlns:xlink="http://www.w3.org/1999/xlink" x="0px" y="0px"
	 viewBox="0 0 576 512" style="enable-background:new 0 0 576 512;" xml:space="preserve">
<style type="text/css">
	.st0{display:none;}
	.st1{display:inline;}
	.st2{fill:#FFFFFF;}
</style>
<g id="Layer_1" class="st0">
	<path class="st1" d="M312,24v10.5c6.4,1.2,12.6,2.7,18.2,4.2c12.8,3.4,20.4,16.6,17,29.4s-16.6,20.4-29.4,17
		c-10.9-2.9-21.1-4.9-30.2-5c-7.3-0.1-14.7,1.7-19.4,4.4c-2.1,1.3-3.1,2.4-3.5,3c-0.3,0.5-0.7,1.2-0.7,2.8c0,0.3,0,0.5,0,0.6
		c0.2,0.2,0.9,1.2,3.3,2.6c5.8,3.5,14.4,6.2,27.4,10.1l0.9,0.3c11.1,3.3,25.9,7.8,37.9,15.3c13.7,8.6,26.1,22.9,26.4,44.9
		c0.3,22.5-11.4,38.9-26.7,48.5c-6.7,4.1-13.9,7-21.3,8.8V232c0,13.3-10.7,24-24,24s-24-10.7-24-24v-11.4
		c-9.5-2.3-18.2-5.3-25.6-7.8c-2.1-0.7-4.1-1.4-6-2c-12.6-4.2-19.4-17.8-15.2-30.4s17.8-19.4,30.4-15.2c2.6,0.9,5,1.7,7.3,2.5
		c13.6,4.6,23.4,7.9,33.9,8.3c8,0.3,15.1-1.6,19.2-4.1c1.9-1.2,2.8-2.2,3.2-2.9c0.4-0.6,0.9-1.8,0.8-4.1v-0.2c0-1,0-2.1-4-4.6
		c-5.7-3.6-14.3-6.4-27.1-10.3l-1.9-0.6c-10.8-3.2-25-7.5-36.4-14.4c-13.5-8.1-26.5-22-26.6-44.1c-0.1-22.9,12.9-38.6,27.7-47.4
		c6.4-3.8,13.3-6.4,20.2-8.2V24c0-13.3,10.7-24,24-24s24,10.7,24,24H312z M568.2,336.3c13.1,17.8,9.3,42.8-8.5,55.9l-126.6,93.3
		c-23.4,17.2-51.6,26.5-80.7,26.5H192H32c-17.7,0-32-14.3-32-32v-64c0-17.7,14.3-32,32-32h36.8l44.9-36c22.7-18.2,50.9-28,80-28H272
		h16h64c17.7,0,32,14.3,32,32s-14.3,32-32,32h-64h-16c-8.8,0-16,7.2-16,16s7.2,16,16,16h120.6l119.7-88.2
		C530.1,314.7,555.1,318.5,568.2,336.3z M193.6,384L193.6,384h-0.9C193,384,193.3,384,193.6,384z"/>
</g>
<g id="Layer_3">
	<path d="M568.2,336c13.1,17.8,9.3,42.8-8.5,55.9l-126.6,93.3c-23.4,17.2-51.6,26.5-80.7,26.5H192H32c-17.7,0-32-14.3-32-32v-64
		c0-17.7,14.3-32,32-32h36.8l44.9-36c22.7-18.2,50.9-28,80-28H272h16h64c17.7,0,32,14.3,32,32s-14.3,32-32,32h-64h-16
		c-8.8,0-16,7.2-16,16s7.2,16,16,16h120.6l119.7-88.2C530.1,314.3,555.1,318.2,568.2,336z"/>
	<path class="st2" d="M32,491.7c-6.6,0-12-5.4-12-12v-64c0-6.6,5.4-12,12-12h43.8l50.4-40.4c19-15.2,43-23.6,67.5-23.6H352
		c6.6,0,12,5.4,12,12s-5.4,12-12,12h-80c-19.9,0-36,16.1-36,36s16.1,36,36,36h127.2l125-92.1c3.5-2.5,7.5-3.9,11.8-3.9
		c6.4,0,12.3,3,16.1,8.1c6.5,8.9,4.6,21.4-4.2,27.9L421.2,469c-20.1,14.8-43.9,22.6-68.8,22.6H32z"/>
</g>
<g id="Layer_2">
	<path d="M246,283.1L246,283.1h-0.6C245.6,283.1,245.8,283.1,246,283.1z"/>
	<path d="M310.4,82.6v6.8c4.1,0.8,8.1,1.7,11.8,2.7c8.3,2.2,13.2,10.7,11,19c-2.2,8.3-10.7,13.2-19,11c-7-1.9-13.6-3.2-19.5-3.2
		c-4.7-0.1-9.5,1.1-12.5,2.8c-1.4,0.8-2,1.5-2.3,1.9c-0.2,0.3-0.5,0.8-0.5,1.8c0,0.2,0,0.3,0,0.4c0.1,0.1,0.6,0.8,2.1,1.7
		c3.7,2.3,9.3,4,17.7,6.5l0.6,0.2c7.2,2.1,16.7,5,24.5,9.9c8.8,5.6,16.9,14.8,17,29c0.2,14.5-7.4,25.1-17.2,31.3
		c-4.3,2.6-9,4.5-13.8,5.7v6.8c0,8.6-6.9,15.5-15.5,15.5c-8.6,0-15.5-6.9-15.5-15.5v-7.4c-6.1-1.5-11.8-3.4-16.5-5
		c-1.4-0.5-2.6-0.9-3.9-1.3c-8.1-2.7-12.5-11.5-9.8-19.6c2.7-8.1,11.5-12.5,19.6-9.8c1.7,0.6,3.2,1.1,4.7,1.6
		c8.8,3,15.1,5.1,21.9,5.4c5.2,0.2,9.7-1,12.4-2.6c1.2-0.8,1.8-1.4,2.1-1.9c0.3-0.4,0.6-1.2,0.5-2.6v-0.1c0-0.6,0-1.4-2.6-3
		c-3.7-2.3-9.2-4.1-17.5-6.6l-1.2-0.4c-7-2.1-16.1-4.8-23.5-9.3c-8.7-5.2-17.1-14.2-17.2-28.5c-0.1-14.8,8.3-24.9,17.9-30.6
		c4.1-2.5,8.6-4.1,13-5.3v-7.2c0-8.6,6.9-15.5,15.5-15.5s15.5,6.9,15.5,15.5H310.4z"/>
	<path class="st2" d="M294.9,222.7c-3.3,0-5.8-2.6-5.8-5.8v-15l-7.4-1.8c-5.4-1.3-10.4-3-14.9-4.5c0,0-1.8-0.6-2.2-0.7
		c-0.9-0.3-1.8-0.6-2.6-0.9c-1.5-0.5-2.6-1.5-3.3-2.9c-0.7-1.4-0.8-3-0.3-4.5c0.8-2.4,3-4,5.5-4c0.6,0,1.2,0.1,1.8,0.3
		c0.8,0.3,1.6,0.5,2.3,0.8c0.8,0.3,1.6,0.5,2.3,0.8l0.1,0c9.2,3.1,16.4,5.5,24.6,5.9c0.5,0,1,0,1.4,0c6.1,0,12.1-1.5,16.4-4.1
		l0.1-0.1c2.3-1.5,4-3.1,5.1-5c1.4-2.2,2.1-4.9,2-7.9c0-6.7-5.2-9.9-7.1-11.1c-4.7-3-10.9-5-19.8-7.7l-1.3-0.4
		c-5.9-1.7-14.8-4.4-21.2-8.3c-8.3-5-12.5-11.8-12.5-20.2c-0.1-12.5,8.2-19.3,13.1-22.2c3-1.8,6.5-3.2,10.5-4.2l7.2-1.9V82.6
		c0-3.3,2.6-5.8,5.8-5.8c3.3,0,5.8,2.6,5.8,5.8v9.7h0.1v5.1l7.9,1.5c3.4,0.6,7,1.5,11,2.5c3.1,0.8,4.9,4,4.1,7.1
		c-0.7,2.5-3,4.3-5.6,4.3c-0.5,0-1-0.1-1.5-0.2c-8.9-2.4-15.8-3.5-21.9-3.6c-0.1,0-0.3,0-0.5,0c-6.1,0-12.5,1.5-17,4.1l-0.1,0.1
		l-0.1,0.1c-2.3,1.4-4,3-5.2,4.8l-0.1,0.2l-0.1,0.2c-1.2,2.1-1.8,4.3-1.8,6.8c0,0-0.1,2.5,0.6,4.4c0.7,1.9,2.4,3.5,2.4,3.5
		c0.5,0.5,1.6,1.2,3.9,2.5c4.7,2.8,10.6,4.7,19.7,7.4l0.6,0.2l0.2,0c6.1,1.8,15.3,4.5,22.1,8.8c8.2,5.1,12.4,12.2,12.5,20.9
		c0.2,12.9-7.8,19.9-12.7,22.9c-3.3,2-7,3.5-10.9,4.5l-7.4,1.8v14.5C300.7,220.1,298.1,222.7,294.9,222.7z"/>
</g>
<g id="Layer_4">
	<path d="M350.6,16.1c-21.2,0-41.2,7.3-57.3,20.6c-35.3-29.2-87.8-27.3-120.8,5.7c-34.9,34.9-35,91.5-0.5,126.6
		c0.2,0.2,0.3,0.4,0.5,0.5l114.6,114.6c1.7,1.7,4,2.6,6.3,2.6s4.5-0.9,6.3-2.6l114.6-114.6c17-17,26.3-39.5,26.3-63.5
		c0-24-9.4-46.6-26.3-63.5C397.2,25.5,374.6,16.1,350.6,16.1z M401.6,157L293.3,265.3L185.5,157.5c-0.1-0.2-0.3-0.3-0.5-0.5
		c-28.1-28.1-28.1-73.9,0-102c28.1-28.1,73.7-28.1,101.8-0.2c1.6,1.6,3.7,2.6,5.9,2.7c2.5,0.1,5-0.8,6.8-2.6
		c13.6-13.6,31.7-21.1,51-21.1s37.4,7.5,51,21.1c13.6,13.6,21.1,31.7,21.1,51S415.2,143.4,401.6,157z"/>
</g>
</svg>
